HIERARCHY
ROOT hip
{
  OFFSET 5.51535 103.731 -2.80141
  CHANNELS 6 Xposition Yposition Zposition Zrotation Xrotation Yrotation
  JOINT abdomen
  {
    OFFSET 0 -1.186 -1.5018
    CHANNELS 6 Xposition Yposition Zposition Zrotation Xrotation Yrotation
    JOINT abdomen2
    {
      OFFSET 0 9.964 0.2134
      CHANNELS 6 Xposition Yposition Zposition Zrotation Xrotation Yrotation
      JOINT chest
      {
        OFFSET 0 13.134 -3.2573
        CHANNELS 6 Xposition Yposition Zposition Zrotation Xrotation Yrotation
        JOINT neck
        {
          OFFSET 0 20.686 -1.6905
          CHANNELS 6 Xposition Yposition Zposition Zrotation Xrotation Yrotation
          JOINT head
          {
            OFFSET 0 7.23801 -0.1237
            CHANNELS 6 Xposition Yposition Zposition Zrotation Xrotation Yrotation
            End Site
            {
              OFFSET 0 0 0
            }
          }
        }
        JOINT lCollar
        {
          OFFSET 1.7069 20.075 5.0056
          CHANNELS 6 Xposition Yposition Zposition Zrotation Xrotation Yrotation
          JOINT lShldr
          {
            OFFSET 13.6458 -0.0470195 -4.849
            CHANNELS 6 Xposition Yposition Zposition Zrotation Xrotation Yrotation
            JOINT lForeArm
            {
              OFFSET 28.3255 -0.97589 2.2888
              CHANNELS 6 Xposition Yposition Zposition Zrotation Xrotation Yrotation
              JOINT lHand
              {
                OFFSET 22.1583 -0.529998 10.8316
                CHANNELS 6 Xposition Yposition Zposition Zrotation Xrotation Yrotation
                JOINT lThumb1
                {
                  OFFSET 0.786 0.111997 2.5817
                  CHANNELS 6 Xposition Yposition Zposition Zrotation Xrotation Yrotation
                  JOINT lThumb2
                  {
                    OFFSET 0.360097 -0.877999 4.2331
                    CHANNELS 6 Xposition Yposition Zposition Zrotation Xrotation Yrotation
                    JOINT lThumb2_End
                    {
                      OFFSET 1.8127 -1.21601 2.2227
                      CHANNELS 6 Xposition Yposition Zposition Zrotation Xrotation Yrotation
                      End Site
                      {
                        OFFSET 0.0180981 -0.012195 0.0222007
                      }
                    }
                  }
                }
                JOINT lCarpal1
                {
                  OFFSET 0.9571 1.114 1.7695
                  CHANNELS 6 Xposition Yposition Zposition Zrotation Xrotation Yrotation
                  JOINT lIndex1
                  {
                    OFFSET 4.12461 0.486992 4.1451
                    CHANNELS 6 Xposition Yposition Zposition Zrotation Xrotation Yrotation
                    JOINT lIndex2
                    {
                      OFFSET 3.4052 -1.45401 2.7682
                      CHANNELS 6 Xposition Yposition Zposition Zrotation Xrotation Yrotation
                      JOINT lIndex2_End
                      {
                        OFFSET 1.45309 -1.79499 1.2713
                        CHANNELS 6 Xposition Yposition Zposition Zrotation Xrotation Yrotation
                        End Site
                        {
                          OFFSET 0.0144979 -0.0179083 0.0126995
                        }
                      }
                    }
                  }
                  JOINT lMid1
                  {
                    OFFSET 5.6954 0.209987 2.1184
                    CHANNELS 6 Xposition Yposition Zposition Zrotation Xrotation Yrotation
                    JOINT lMid2
                    {
                      OFFSET 3.9766 -1.53999 2.3863
                      CHANNELS 6 Xposition Yposition Zposition Zrotation Xrotation Yrotation
                      JOINT lMid2_End
                      {
                        OFFSET 1.4042 -1.926 1.125
                        CHANNELS 6 Xposition Yposition Zposition Zrotation Xrotation Yrotation
                        End Site
                        {
                          OFFSET 0.013999 -0.0193044 0.011301
                        }
                      }
                    }
                  }
                }
                JOINT lCarpal2
                {
                  OFFSET 2.0956 0.66 -0.3894
                  CHANNELS 6 Xposition Yposition Zposition Zrotation Xrotation Yrotation
                  JOINT lRing1
                  {
                    OFFSET 5.0395 -0.090013 2.4971
                    CHANNELS 6 Xposition Yposition Zposition Zrotation Xrotation Yrotation
                    JOINT lRing2
                    {
                      OFFSET 3.7921 -1.55199 1.4806
                      CHANNELS 6 Xposition Yposition Zposition Zrotation Xrotation Yrotation
                      JOINT lRing2_End
                      {
                        OFFSET 1.4655 -1.808 0.9609
                        CHANNELS 6 Xposition Yposition Zposition Zrotation Xrotation Yrotation
                        End Site
                        {
                          OFFSET 0.0147015 -0.0181014 0.00959957
                        }
                      }
                    }
                  }
                  JOINT lPinky1
                  {
                    OFFSET 4.9141 -1.269 0.3591
                    CHANNELS 6 Xposition Yposition Zposition Zrotation Xrotation Yrotation
                    JOINT lPinky2
                    {
                      OFFSET 3.1477 -1.685 0.8462
                      CHANNELS 6 Xposition Yposition Zposition Zrotation Xrotation Yrotation
                      JOINT lPinky2_End
                      {
                        OFFSET 0.805498 -1.58501 0.795499
                        CHANNELS 6 Xposition Yposition Zposition Zrotation Xrotation Yrotation
                        End Site
                        {
                          OFFSET 0.00809703 -0.0157944 0.00799848
                        }
                      }
                    }
                  }
                }
              }
            }
          }
        }
        JOINT rCollar
        {
          OFFSET -1.7069 20.075 5.0056
          CHANNELS 6 Xposition Yposition Zposition Zrotation Xrotation Yrotation
          JOINT rShldr
          {
            OFFSET -13.6458 -0.0470107 -4.849
            CHANNELS 6 Xposition Yposition Zposition Zrotation Xrotation Yrotation
            JOINT rForeArm
            {
              OFFSET -28.3255 -0.975895 2.2888
              CHANNELS 6 Xposition Yposition Zposition Zrotation Xrotation Yrotation
              JOINT rHand
              {
                OFFSET -22.1583 -0.530007 10.8316
                CHANNELS 6 Xposition Yposition Zposition Zrotation Xrotation Yrotation
                JOINT rThumb1
                {
                  OFFSET -0.785997 0.112005 2.5817
                  CHANNELS 6 Xposition Yposition Zposition Zrotation Xrotation Yrotation
                  JOINT rThumb2
                  {
                    OFFSET -0.360106 -0.877994 4.2331
                    CHANNELS 6 Xposition Yposition Zposition Zrotation Xrotation Yrotation
                    JOINT rThumb2_End
                    {
                      OFFSET -1.8127 -1.216 2.2227
                      CHANNELS 6 Xposition Yposition Zposition Zrotation Xrotation Yrotation
                      End Site
                      {
                        OFFSET -0.0180972 -0.0121973 0.0222005
                      }
                    }
                  }
                }
                JOINT rCarpal1
                {
                  OFFSET -0.9571 1.114 1.7695
                  CHANNELS 6 Xposition Yposition Zposition Zrotation Xrotation Yrotation
                  JOINT rIndex1
                  {
                    OFFSET -4.1246 0.487011 4.1451
                    CHANNELS 6 Xposition Yposition Zposition Zrotation Xrotation Yrotation
                    JOINT rIndex2
                    {
                      OFFSET -3.4052 -1.45401 2.7682
                      CHANNELS 6 Xposition Yposition Zposition Zrotation Xrotation Yrotation
                      JOINT rIndex2_End
                      {
                        OFFSET -1.4531 -1.795 1.2713
                        CHANNELS 6 Xposition Yposition Zposition Zrotation Xrotation Yrotation
                        End Site
                        {
                          OFFSET -0.0145077 -0.0180048 0.0127017
                        }
                      }
                    }
                  }
                  JOINT rMid1
                  {
                    OFFSET -5.6954 0.210002 2.1184
                    CHANNELS 6 Xposition Yposition Zposition Zrotation Xrotation Yrotation
                    JOINT rMid2
                    {
                      OFFSET -3.9766 -1.54 2.3863
                      CHANNELS 6 Xposition Yposition Zposition Zrotation Xrotation Yrotation
                      JOINT rMid2_End
                      {
                        OFFSET -1.4042 -1.926 1.125
                        CHANNELS 6 Xposition Yposition Zposition Zrotation Xrotation Yrotation
                        End Site
                        {
                          OFFSET -0.0139948 -0.0192916 0.0112994
                        }
                      }
                    }
                  }
                }
                JOINT rCarpal2
                {
                  OFFSET -2.0956 0.66 -0.3894
                  CHANNELS 6 Xposition Yposition Zposition Zrotation Xrotation Yrotation
                  JOINT rRing1
                  {
                    OFFSET -5.03951 -0.0899879 2.4971
                    CHANNELS 6 Xposition Yposition Zposition Zrotation Xrotation Yrotation
                    JOINT rRing2
                    {
                      OFFSET -3.7921 -1.55201 1.4806
                      CHANNELS 6 Xposition Yposition Zposition Zrotation Xrotation Yrotation
                      JOINT rRing2_End
                      {
                        OFFSET -1.4655 -1.808 0.960901
                        CHANNELS 6 Xposition Yposition Zposition Zrotation Xrotation Yrotation
                        End Site
                        {
                          OFFSET -0.0146934 -0.0180999 0.00959832
                        }
                      }
                    }
                  }
                  JOINT rPinky1
                  {
                    OFFSET -4.91411 -1.26899 0.359202
                    CHANNELS 6 Xposition Yposition Zposition Zrotation Xrotation Yrotation
                    JOINT rPinky2
                    {
                      OFFSET -3.14769 -1.68501 0.846199
                      CHANNELS 6 Xposition Yposition Zposition Zrotation Xrotation Yrotation
                      JOINT rPinky2_End
                      {
                        OFFSET -0.805498 -1.585 0.7955
                        CHANNELS 6 Xposition Yposition Zposition Zrotation Xrotation Yrotation
                        End Site
                        {
                          OFFSET -0.00810035 -0.0158035 0.00800029
                        }
                      }
                    }
                  }
                }
              }
            }
          }
        }
      }
    }
  }
  JOINT lThigh
  {
    OFFSET 8.367 -8.2066 0.5982
    CHANNELS 6 Xposition Yposition Zposition Zrotation Xrotation Yrotation
    JOINT lShin
    {
      OFFSET 2.1923 -43.463 -0.4932
      CHANNELS 6 Xposition Yposition Zposition Zrotation Xrotation Yrotation
      JOINT lFoot
      {
        OFFSET 0.733301 -45.8593 -2.6451
        CHANNELS 6 Xposition Yposition Zposition Zrotation Xrotation Yrotation
        End Site
        {
          OFFSET 2.6618 -4.2699 12.3931
        }
      }
    }
  }
  JOINT rThigh
  {
    OFFSET -8.367 -8.2066 0.5982
    CHANNELS 6 Xposition Yposition Zposition Zrotation Xrotation Yrotation
    JOINT rShin
    {
      OFFSET -2.1923 -43.463 -0.4931
      CHANNELS 6 Xposition Yposition Zposition Zrotation Xrotation Yrotation
      JOINT rFoot
      {
        OFFSET -0.733299 -45.8593 -2.6451
        CHANNELS 6 Xposition Yposition Zposition Zrotation Xrotation Yrotation
        End Site
        {
          OFFSET -2.6618 -4.2699 12.3931
        }
      }
    }
  }
}
MOTION
Frames:	4
Frame Time:	0.0333333
1.32518 70.6353 -3.16818 -3.33876 6.55384 -4.3242 -2.60658e-007 -1.186 -1.5018 2.248 6.88942 -0.380085 7.55524e-008 9.96399 0.213401 4.59265 13.7582 -1.04583 -1.68067e-008 13.134 -3.2573 4.59265 13.7582 -1.04583 -2.82465e-006 20.686 -1.6905 -10.8505 -7.95059 -5.4307 -1.85721e-007 7.23801 -0.1237 -7.19246 -3.3221 -3.34131 1.7069 20.075 5.0056 8.65826 -2.65971 4.54191 13.6458 -0.0470079 -4.849 -63.7716 -0.164598 -43.1713 28.3255 -0.975887 2.2888 -23.6744 29.0888 -109.676 22.1583 -0.529986 10.8316 -50.031 -33.5045 -18.5215 0.786003 0.111998 2.5817 -8.38646 1.76882 4.89215 0.360097 -0.877998 4.2331 3.61855 0.650337 6.678 1.8127 -1.21601 2.2227 7.50404 1.85234 14.0024 0.9571 1.114 1.7695 -4.77083e-015 -3.18055e-015 -3.18055e-015 4.1246 0.486992 4.1451 7.37239 15.7705 5.49184 3.4052 -1.454 2.7682 9.81497 -4.74349 -3.67688 1.4531 -1.79499 1.2713 4.87792 -2.26229 -1.91495 5.6954 0.209986 2.1184 11.7512 5.36141 0.91451 3.9766 -1.53999 2.3863 -12.5022 5.42188 5.69525 1.4042 -1.926 1.125 -13.2985 5.71574 6.08772 2.0956 0.66 -0.3894 -4.77083e-015 -3.18055e-015 -3.18055e-015 5.0395 -0.0900115 2.4971 6.41005 -2.88404 5.26588 3.7921 -1.55199 1.4806 -9.62929 4.6252 4.87787 1.4655 -1.808 0.960897 -11.3475 5.3418 5.80549 4.9141 -1.269 0.359102 7.90665 -3.61183 19.5068 3.1477 -1.68501 0.846198 -8.86101 4.61971 4.42744 0.805498 -1.58501 0.795497 -14.0817 6.91991 7.26414 -1.7069 20.075 5.0056 -15.5864 -0.141541 4.07724 -13.6458 -0.0470119 -4.849 29.8052 -15.6847 -41.6174 -28.3255 -0.975882 2.2888 25.9371 28.9726 104.343 -22.1583 -0.530005 10.8316 -73.4616 20.043 41.4515 -0.786001 0.112001 2.5817 12.2514 -14.8579 -17.9717 -0.360104 -0.877995 4.2331 -2.96388 3.04168 -9.68688 -1.81269 -1.216 2.2227 -4.93273 5.78295 -17.2848 -0.9571 1.114 1.7695 1.59028e-015 0 -3.18055e-015 -4.12461 0.48701 4.1451 29.2898 19.3369 -10.9115 -3.4052 -1.45401 2.7682 17.7434 5.39563 -3.33075 -1.4531 -1.795 1.2713 23.8179 6.946 -4.8157 -5.69541 0.210005 2.1184 13.2161 12.4728 -2.28536 -3.9766 -1.54 2.3863 29.9052 9.50923 -6.66651 -1.4042 -1.926 1.125 5.73674 2.11051 -0.892775 -2.0956 0.66 -0.3894 1.59028e-015 0 -3.18055e-015 -5.03951 -0.0899894 2.4971 16.7612 4.39584 -11.1324 -3.7921 -1.55201 1.4806 26.6802 9.35938 -7.01354 -1.4655 -1.808 0.960899 3.94443 1.6077 -0.766037 -4.91411 -1.26899 0.359201 18.9624 0.606292 -24.419 -3.1477 -1.68501 0.846198 25.7173 9.89709 -6.55133 -0.805501 -1.585 0.795499 6.93481 3.00089 -1.34129 8.367 -8.2066 0.5982 -72.8813 -78.8903 -85.3946 2.19231 -43.4631 -0.49332 -151.701 82.0628 162.617 0.733307 -45.8593 -2.64512 -6.70286 6.46125 1.79852 -8.36701 -8.2066 0.598201 38.0397 -84.2437 35.0189 -2.19829 -43.4618 -0.572159 97.7137 74.1788 -94.1415 -0.733295 -45.8593 -2.6451 -10.0809 -5.45763 -12.4253 
1.32496 70.6353 -3.16755 -3.33766 6.55777 -4.32221 -1.49e-007 -1.186 -1.5018 2.24872 6.88693 -0.3769 -7.55664e-008 9.964 0.2134 4.59365 13.7533 -1.03936 -1.02415e-007 13.134 -3.2573 4.59365 13.7533 -1.03936 -4.36347e-007 20.686 -1.6905 -10.8441 -7.9686 -5.43077 1.67685e-007 7.23802 -0.123698 -7.18471 -3.33912 -3.34442 1.7069 20.075 5.0056 8.65902 -2.65914 4.54327 13.6458 -0.0470128 -4.849 -63.7649 -0.21631 -43.1429 28.3255 -0.975898 2.2888 -23.6704 29.0118 -109.708 22.1583 -0.529988 10.8316 -50.031 -33.5045 -18.5215 0.786003 0.111998 2.5817 -8.38646 1.76885 4.89216 0.360096 -0.877999 4.2331 3.61854 0.650318 6.67799 1.8127 -1.21601 2.2227 7.50403 1.85232 14.0024 0.9571 1.114 1.7695 3.18055e-015 0 1.59028e-015 4.1246 0.486993 4.1451 7.3724 15.7705 5.49184 3.4052 -1.45401 2.7682 9.8144 -4.7432 -3.6767 1.4531 -1.79499 1.2713 4.87654 -2.26161 -1.91443 5.6954 0.209988 2.1184 11.7512 5.36137 0.914513 3.9766 -1.53999 2.3863 -12.5022 5.42187 5.69525 1.4042 -1.926 1.125 -13.2985 5.71573 6.08771 2.0956 0.66 -0.3894 3.18055e-015 0 1.59028e-015 5.0395 -0.0900136 2.4971 6.41003 -2.88405 5.26589 3.7921 -1.55199 1.4806 -9.62928 4.62518 4.87785 1.4655 -1.808 0.960899 -11.3475 5.34179 5.80549 4.9141 -1.269 0.359102 7.90664 -3.61184 19.5068 3.1477 -1.68501 0.846203 -8.861 4.61971 4.42744 0.805498 -1.58501 0.7955 -14.0817 6.91992 7.26414 -1.7069 20.075 5.0056 -15.5864 -0.141581 4.07722 -13.6458 -0.0470165 -4.849 29.8098 -15.6823 -41.6458 -28.3255 -0.975895 2.2888 25.9345 28.9707 104.354 -22.1583 -0.530004 10.8316 -73.461 20.0476 41.4587 -0.786002 0.112008 2.5817 12.2514 -14.858 -17.9717 -0.360106 -0.87799 4.2331 -2.96388 3.04168 -9.68688 -1.81269 -1.216 2.2227 -4.93273 5.78296 -17.2848 -0.9571 1.114 1.7695 -0 0 3.18055e-015 -4.12461 0.487008 4.1451 29.2898 19.3369 -10.9115 -3.4052 -1.454 2.7682 17.7434 5.39563 -3.33075 -1.4531 -1.795 1.2713 23.8179 6.94602 -4.81569 -5.69541 0.210002 2.1184 13.2161 12.4728 -2.28536 -3.9766 -1.54 2.3863 29.9051 9.50923 -6.66651 -1.4042 -1.926 1.125 5.73675 2.11053 -0.892764 -2.0956 0.66 -0.3894 -0 0 3.18055e-015 -5.03951 -0.0899856 2.4971 16.7611 4.39584 -11.1324 -3.7921 -1.55201 1.4806 26.6802 9.35938 -7.01355 -1.4655 -1.808 0.9609 3.94444 1.6077 -0.766035 -4.91411 -1.26899 0.359199 18.9624 0.606292 -24.419 -3.1477 -1.68501 0.846199 25.7173 9.89709 -6.55135 -0.8055 -1.585 0.7955 6.93481 3.0009 -1.34128 8.367 -8.2066 0.598201 -72.9051 -78.8906 -85.418 2.19231 -43.463 -0.493535 -151.698 82.0631 162.612 0.733298 -45.8593 -2.64509 -6.69921 6.46235 1.79685 -8.367 -8.2066 0.5982 38.3752 -84.2868 35.3562 -2.20119 -43.4611 -0.610454 97.887 74.1695 -94.3261 -0.733307 -45.8593 -2.64512 -10.0802 -5.4584 -12.4257 
1.32514 70.6353 -3.16684 -3.33636 6.56243 -4.31704 -4.81223e-007 -1.18599 -1.5018 2.25102 6.8829 -0.368889 5.13476e-008 9.96399 0.2134 4.59725 13.7456 -1.02328 4.07755e-010 13.134 -3.2573 4.59724 13.7456 -1.02328 -4.63236e-006 20.6862 -1.69051 -10.8379 -7.98496 -5.43058 1.95339e-006 7.238 -0.123689 -7.17691 -3.35444 -3.34703 1.7069 20.075 5.0056 8.66109 -2.65739 4.5469 13.6458 -0.0470129 -4.849 -63.7316 -0.277687 -43.1341 28.3255 -0.975897 2.2888 -23.6679 28.9632 -109.728 22.1583 -0.529985 10.8316 -50.031 -33.5045 -18.5215 0.786003 0.111996 2.5817 -8.38647 1.76883 4.89213 0.360098 -0.878 4.2331 3.61855 0.650342 6.678 1.8127 -1.21601 2.2227 7.50404 1.85231 14.0024 0.9571 1.114 1.7695 -8.82781e-032 -3.18055e-015 -1.59028e-015 4.1246 0.486991 4.1451 7.37238 15.7705 5.49184 3.4052 -1.45401 2.7682 9.81385 -4.74291 -3.67652 1.4531 -1.79499 1.2713 4.87514 -2.26094 -1.9139 5.6954 0.209987 2.1184 11.7512 5.36139 0.91451 3.9766 -1.53999 2.3863 -12.5022 5.42188 5.69526 1.4042 -1.926 1.125 -13.2985 5.71572 6.08773 2.0956 0.66 -0.3894 -8.82781e-032 -3.18055e-015 -1.59028e-015 5.0395 -0.0900136 2.4971 6.41003 -2.88406 5.26588 3.7921 -1.55199 1.4806 -9.6293 4.62517 4.87787 1.4655 -1.808 0.960899 -11.3475 5.3418 5.80551 4.9141 -1.269 0.359101 7.90662 -3.61182 19.5068 3.1477 -1.685 0.846201 -8.86101 4.61968 4.42744 0.805498 -1.58501 0.795503 -14.0817 6.91992 7.26415 -1.7069 20.075 5.00559 -15.5864 -0.141516 4.07725 -13.6458 -0.0470118 -4.849 29.8121 -15.6759 -41.716 -28.3255 -0.975887 2.28881 25.9279 28.9682 104.383 -22.1583 -0.530011 10.8316 -73.462 20.0544 41.4691 -0.786002 0.112007 2.5817 12.2515 -14.858 -17.9717 -0.360105 -0.877993 4.2331 -2.96388 3.04168 -9.68686 -1.8127 -1.21601 2.2227 -4.93273 5.78296 -17.2848 -0.9571 1.114 1.7695 3.18055e-015 -1.59028e-015 3.18055e-015 -4.12461 0.487011 4.1451 29.2898 19.3369 -10.9115 -3.4052 -1.45401 2.7682 17.7434 5.39563 -3.33074 -1.4531 -1.79499 1.2713 23.8179 6.94602 -4.81569 -5.6954 0.209998 2.1184 13.2161 12.4728 -2.28535 -3.9766 -1.54 2.3863 29.9051 9.50922 -6.66651 -1.4042 -1.926 1.125 5.73675 2.11054 -0.892745 -2.0956 0.66 -0.3894 3.18055e-015 -1.59028e-015 3.18055e-015 -5.03951 -0.0899892 2.4971 16.7612 4.39584 -11.1324 -3.7921 -1.552 1.4806 26.6802 9.35939 -7.01353 -1.4655 -1.808 0.960901 3.94442 1.6077 -0.766033 -4.91411 -1.26899 0.359199 18.9624 0.606299 -24.419 -3.1477 -1.68501 0.846197 25.7173 9.89709 -6.55133 -0.805501 -1.585 0.795501 6.9348 3.0009 -1.34129 8.367 -8.20661 0.598202 -72.9364 -78.8893 -85.4471 2.19231 -43.463 -0.493487 -151.693 82.0638 162.607 0.733299 -45.8593 -2.64511 -6.69527 6.46354 1.79531 -8.36701 -8.2066 0.5982 38.234 -84.2498 35.2195 -2.1986 -43.4617 -0.57595 97.7363 74.1779 -94.1665 -0.733287 -45.8593 -2.64511 -10.0799 -5.4594 -12.4263 
1.32415 70.6353 -3.16603 -3.33493 6.56757 -4.3095 1.48891e-007 -1.186 -1.5018 2.25454 6.87786 -0.357284 -6.88528e-008 9.964 0.213399 4.60283 13.7359 -1.00003 6.90108e-008 13.134 -3.2573 4.60283 13.7359 -1.00003 -3.58676e-006 20.6862 -1.6905 -10.8314 -7.99958 -5.43012 8.34453e-007 7.23799 -0.123686 -7.16929 -3.3681 -3.3492 1.7069 20.075 5.0056 8.66413 -2.65489 4.55229 13.6458 -0.0470119 -4.849 -63.6783 -0.345278 -43.141 28.3255 -0.9759 2.2888 -23.6667 28.9382 -109.739 22.1583 -0.529988 10.8316 -50.031 -33.5045 -18.5215 0.786004 0.111997 2.5817 -8.38646 1.7688 4.89213 0.360097 -0.877999 4.2331 3.61854 0.650327 6.678 1.8127 -1.21601 2.2227 7.50404 1.8523 14.0025 0.9571 1.114 1.7695 -4.77083e-015 -3.18055e-015 -1.59028e-015 4.12461 0.48699 4.1451 7.37237 15.7705 5.49185 3.4052 -1.45401 2.7682 9.8133 -4.7426 -3.67634 1.4531 -1.79499 1.2713 4.87374 -2.26026 -1.91339 5.6954 0.209987 2.1184 11.7512 5.36139 0.914519 3.9766 -1.53999 2.3863 -12.5022 5.42188 5.69527 1.4042 -1.926 1.125 -13.2985 5.71571 6.08774 2.0956 0.66 -0.3894 -4.77083e-015 -3.18055e-015 -1.59028e-015 5.0395 -0.0900124 2.4971 6.41001 -2.88408 5.26589 3.7921 -1.55199 1.4806 -9.62931 4.62519 4.87788 1.4655 -1.808 0.960897 -11.3475 5.34177 5.8055 4.9141 -1.269 0.359099 7.90661 -3.61187 19.5068 3.1477 -1.685 0.846198 -8.86102 4.61967 4.42744 0.805498 -1.58501 0.795497 -14.0817 6.91991 7.26416 -1.7069 20.075 5.0056 -15.5864 -0.141508 4.07724 -13.6458 -0.0470174 -4.849 29.8126 -15.6666 -41.8176 -28.3255 -0.975882 2.28879 25.9184 28.9652 104.424 -22.1583 -0.530007 10.8316 -73.4652 20.0631 41.4827 -0.786001 0.112003 2.5817 12.2515 -14.858 -17.9717 -0.360105 -0.877997 4.2331 -2.96389 3.04169 -9.68689 -1.8127 -1.216 2.2227 -4.93273 5.78297 -17.2848 -0.9571 1.114 1.7695 3.18055e-015 -1.59028e-015 3.18055e-015 -4.12461 0.48701 4.1451 29.2898 19.3369 -10.9115 -3.4052 -1.45401 2.7682 17.7434 5.39565 -3.33075 -1.4531 -1.79499 1.2713 23.8179 6.94601 -4.8157 -5.69541 0.210002 2.1184 13.2161 12.4728 -2.28537 -3.9766 -1.54 2.3863 29.9052 9.50923 -6.66651 -1.4042 -1.926 1.125 5.73675 2.11055 -0.892749 -2.0956 0.66 -0.3894 3.18055e-015 -1.59028e-015 3.18055e-015 -5.03951 -0.08999 2.4971 16.7612 4.39584 -11.1324 -3.7921 -1.55201 1.4806 26.6802 9.35942 -7.01353 -1.4655 -1.808 0.960901 3.94444 1.6077 -0.76603 -4.91411 -1.26899 0.359201 18.9624 0.606311 -24.419 -3.1477 -1.68501 0.846196 25.7173 9.8971 -6.55133 -0.805501 -1.585 0.7955 6.93482 3.0009 -1.34129 8.36701 -8.2066 0.5982 -72.9735 -78.8875 -85.4818 2.19231 -43.463 -0.493712 -151.69 82.0641 162.602 0.733298 -45.8593 -2.64511 -6.69203 6.46448 1.79347 -8.367 -8.2066 0.598198 37.4494 -84.1966 34.432 -2.19323 -43.4628 -0.505545 97.4266 74.1948 -93.8388 -0.73331 -45.8594 -2.64509 -10.0761 -5.46081 -12.4279 
